{"title":"End Of Watch [2012] 720p BRRip H264 AC3 - CODY","uid":7857673,"size":2164580359,"categoryP":"video","categoryS":"hd___movies","magnet":"?xt=urn:btih:99415cfebb046197aa59f792568af77eb87e59a7&amp;dn=End+Of+Watch+%5B2012%5D+720p+BRRip+H264+AC3+-+CODY&amp;tr=udp%3A%2F%2Ftracker.openbittorrent.com%3A80&amp;tr=udp%3A%2F%2Fopen.demonii.com%3A1337&amp;tr=udp%3A%2F%2Ftracker.coppersurfer.tk%3A6969&amp;tr=udp%3A%2F%2Fexodus.desync.com%3A6969","seeders":0,"leechers":0,"uploader":"CODYBOSS1969","files":5,"time":1353817881,"description":"General\nComplete name                            : End Of Watch [2012] 720p BRRip H264 AC3 - CODY.mp4\nFormat                                   : MPEG-4\nFormat profile                           : Base Media\nCodec ID                                 : isom\nFile size                                : 2.02 GiB\nDuration                                 : 1h 48mn\nOverall bit rate mode                    : Variable\nOverall bit rate                         : 2 658 Kbps\nEncoded date                             : UTC 2012-11-25 02:05:02\n\nVideo\nID                                       : 1\nFormat                                   : AVC\nFormat/Info                              : Advanced Video Codec\nFormat profile                           : &lt;a class=&quot;__cf_email__&quot; href=&quot;/cdn-cgi/l/email-protection&quot; data-cfemail=&quot;4e062729260e027a607f&quot;&gt;[email&amp;#160;protected]&lt;/a&gt;&lt;script cf-hash='f9e31' type=&quot;text/javascript&quot;&gt;\n/* &lt;![CDATA[ */!function(){try{var t=&quot;currentScript&quot;in document?document.currentScript:function(){for(var t=document.getElementsByTagName(&quot;script&quot;),e=t.length;e--;)if(t[e].getAttribute(&quot;cf-hash&quot;))return t[e]}();if(t&amp;&amp;t.previousSibling){var e,r,n,i,c=t.previousSibling,a=c.getAttribute(&quot;data-cfemail&quot;);if(a){for(e=&quot;&quot;,r=parseInt(a.substr(0,2),16),n=2;a.length-n;n+=2)i=parseInt(a.substr(n,2),16)^r,e+=String.fromCharCode(i);e=document.createTextNode(e),c.parentNode.replaceChild(e,c)}}}catch(u){}}();/* ]]&gt; */&lt;/script&gt;\nFormat settings, CABAC                   : Yes\nFormat settings, ReFrames                : 5 frames\nCodec ID                                 : avc1\nCodec ID/Info                            : Advanced Video Coding\nDuration                                 : 1h 48mn\nBit rate mode                            : Variable\nBit rate                                 : 2 210 Kbps\nMaximum bit rate                         : 20.0 Mbps\nWidth                                    : 1 280 pixels\nHeight                                   : 720 pixels\nDisplay aspect ratio                     : 16:9\nFrame rate mode                          : Constant\nFrame rate                               : 24.000 fps\nColor space                              : YUV\nChroma subsampling                       : 4:2:0\nBit depth                                : 8 bits\nScan type                                : Progressive\nBits/(Pixel*Frame)                       : 0.100\nStream size                              : 1.67 GiB (83%)\nWriting library                          : x264 core 125 r2208 d9d2288\nEncoding settings                        : rc=2pass\nColor primaries                          : Generic film\n\nAudio\nID                                       : 2\nFormat                                   : AC-3\nFormat/Info                              : Audio Coding 3\nMode extension                           : CM (complete main)\nCodec ID                                 : ac-3\nDuration                                 : 1h 48mn\nBit rate mode                            : Constant\nBit rate                                 : 448 Kbps\nChannel(s)                               : 6 channels\nChannel positions                        : Front: L C R, Side: L R, LFE\nSampling rate                            : 48.0 KHz\nBit depth                                : 16 bits\nCompression mode                         : Lossy\nStream size                              : 348 MiB (17%)\n\nAudio language                           : English\n\nIMDB link:                                &lt;a href=&quot; http://www.imdb.com/title/tt1855199/&quot; rel=&quot;nofollow&quot; target=&quot;_NEW&quot;&gt; http://www.imdb.com/title/tt1855199/&lt;/a&gt;\n\nSubtitles included                       : English\n\nPlease seed at least 1,5:1 . This way this torrent has a chance to survive !\n\nThanks . Enjoy !!  ","torrent":{"xt":"urn:btih:99415cfebb046197aa59f792568af77eb87e59a7","amp;dn":"End+Of+Watch+%5B2012%5D+720p+BRRip+H264+AC3+-+CODY","amp;tr":["udp%3A%2F%2Ftracker.openbittorrent.com%3A80","udp%3A%2F%2Fopen.demonii.com%3A1337","udp%3A%2F%2Ftracker.coppersurfer.tk%3A6969","udp%3A%2F%2Fexodus.desync.com%3A6969"],"infoHash":"99415cfebb046197aa59f792568af77eb87e59a7","infoHashBuffer":{"type":"Buffer","data":[153,65,92,254,187,4,97,151,170,89,247,146,86,138,247,126,184,126,89,167]},"announce":[],"urlList":[]}}